<mxfile host="www.draw.io" modified="2019-12-28T15:48:49.494Z" agent="Mozilla/5.0 (Windows NT 6.1; WOW64) AppleWebKit/537.36 (KHTML, like Gecko) Chrome/75.0.3770.100 Safari/537.36" etag="kQVG2gRrTTvm0gCWMqj8" version="12.4.7" type="github">
  <diagram id="GqhF5LSO889hNfZmh-d_" name="第 1 页">
    <mxGraphModel dx="854" dy="478" grid="1" gridSize="10" guides="1" tooltips="1" connect="1" arrows="1" fold="1" page="1" pageScale="1" pageWidth="827" pageHeight="1169" math="0" shadow="0">
      <root>
        <mxCell id="0"/>
        <mxCell id="1" parent="0"/>
        <mxCell id="aDIp891v4BjhqhOBZq3--1" value="" style="rounded=0;whiteSpace=wrap;html=1;fontFamily=Courier New;fontColor=#000000;" vertex="1" parent="1">
          <mxGeometry x="60" y="120" width="740" height="810" as="geometry"/>
        </mxCell>
        <mxCell id="aDIp891v4BjhqhOBZq3--2" value="平台调度人员" style="rounded=0;whiteSpace=wrap;html=1;fillColor=#4D4D4D;fontColor=#FFFFFF;" vertex="1" parent="1">
          <mxGeometry x="200" y="90" width="150" height="30" as="geometry"/>
        </mxCell>
        <mxCell id="aDIp891v4BjhqhOBZq3--3" value="&lt;span style=&quot;white-space: normal&quot;&gt;外部调车平台&lt;/span&gt;" style="rounded=0;whiteSpace=wrap;html=1;fillColor=#4D4D4D;fontColor=#FFFFFF;" vertex="1" parent="1">
          <mxGeometry x="350" y="90" width="150" height="30" as="geometry"/>
        </mxCell>
        <mxCell id="aDIp891v4BjhqhOBZq3--4" value="审核人员" style="rounded=0;whiteSpace=wrap;html=1;fillColor=#4D4D4D;fontColor=#FFFFFF;" vertex="1" parent="1">
          <mxGeometry x="500" y="90" width="80" height="30" as="geometry"/>
        </mxCell>
        <mxCell id="aDIp891v4BjhqhOBZq3--5" value="体系外线上业务流程" style="rounded=0;whiteSpace=wrap;html=1;fillColor=#CC0000;fontColor=#FFFFFF;fontSize=14;fontStyle=1;fontFamily=Courier New;" vertex="1" parent="1">
          <mxGeometry x="60" y="50" width="740" height="40" as="geometry"/>
        </mxCell>
        <mxCell id="aDIp891v4BjhqhOBZq3--6" value="企业货主" style="rounded=1;whiteSpace=wrap;html=1;" vertex="1" parent="1">
          <mxGeometry x="95" y="183" width="70" height="30" as="geometry"/>
        </mxCell>
        <mxCell id="aDIp891v4BjhqhOBZq3--7" value="省内企业货主" style="rounded=0;whiteSpace=wrap;html=1;fillColor=#4D4D4D;fontColor=#FFFFFF;" vertex="1" parent="1">
          <mxGeometry x="60" y="90" width="140" height="30" as="geometry"/>
        </mxCell>
        <mxCell id="aDIp891v4BjhqhOBZq3--59" style="edgeStyle=orthogonalEdgeStyle;rounded=0;orthogonalLoop=1;jettySize=auto;html=1;entryX=0.5;entryY=0;entryDx=0;entryDy=0;" edge="1" parent="1" source="aDIp891v4BjhqhOBZq3--11" target="aDIp891v4BjhqhOBZq3--58">
          <mxGeometry relative="1" as="geometry"/>
        </mxCell>
        <mxCell id="aDIp891v4BjhqhOBZq3--11" value="调度员&lt;br&gt;刘金兴" style="rounded=1;whiteSpace=wrap;html=1;" vertex="1" parent="1">
          <mxGeometry x="240" y="183" width="70" height="30" as="geometry"/>
        </mxCell>
        <mxCell id="aDIp891v4BjhqhOBZq3--12" value="零担供应商" style="rounded=0;whiteSpace=wrap;html=1;fillColor=#4D4D4D;fontColor=#FFFFFF;" vertex="1" parent="1">
          <mxGeometry x="660" y="90" width="140" height="30" as="geometry"/>
        </mxCell>
        <mxCell id="aDIp891v4BjhqhOBZq3--13" value="微信&lt;br&gt;邮件&lt;br&gt;电话" style="edgeStyle=orthogonalEdgeStyle;rounded=1;orthogonalLoop=1;jettySize=auto;html=1;strokeWidth=1;fontFamily=Courier New;fontColor=#000000;entryX=0;entryY=0.5;entryDx=0;entryDy=0;exitX=1;exitY=0.5;exitDx=0;exitDy=0;strokeColor=#000000;" edge="1" parent="1" source="aDIp891v4BjhqhOBZq3--6" target="aDIp891v4BjhqhOBZq3--11">
          <mxGeometry relative="1" as="geometry">
            <Array as="points">
              <mxPoint x="230" y="198"/>
              <mxPoint x="230" y="198"/>
            </Array>
          </mxGeometry>
        </mxCell>
        <mxCell id="aDIp891v4BjhqhOBZq3--14" value="按结算账期" style="edgeStyle=orthogonalEdgeStyle;rounded=1;comic=0;jumpStyle=gap;jumpSize=6;orthogonalLoop=1;jettySize=auto;html=1;shadow=0;exitX=0.5;exitY=1;exitDx=0;exitDy=0;" edge="1" parent="1" source="aDIp891v4BjhqhOBZq3--98" target="aDIp891v4BjhqhOBZq3--19">
          <mxGeometry relative="1" as="geometry">
            <mxPoint x="735" y="340" as="sourcePoint"/>
          </mxGeometry>
        </mxCell>
        <mxCell id="aDIp891v4BjhqhOBZq3--136" style="edgeStyle=orthogonalEdgeStyle;rounded=1;jumpStyle=arc;orthogonalLoop=1;jettySize=auto;html=1;entryX=1;entryY=0.5;entryDx=0;entryDy=0;" edge="1" parent="1" source="aDIp891v4BjhqhOBZq3--19" target="aDIp891v4BjhqhOBZq3--25">
          <mxGeometry relative="1" as="geometry"/>
        </mxCell>
        <mxCell id="aDIp891v4BjhqhOBZq3--145" style="edgeStyle=orthogonalEdgeStyle;rounded=1;jumpStyle=arc;orthogonalLoop=1;jettySize=auto;html=1;" edge="1" parent="1" source="aDIp891v4BjhqhOBZq3--19" target="aDIp891v4BjhqhOBZq3--140">
          <mxGeometry relative="1" as="geometry"/>
        </mxCell>
        <mxCell id="aDIp891v4BjhqhOBZq3--19" value="申请结算" style="rounded=1;whiteSpace=wrap;html=1;" vertex="1" parent="1">
          <mxGeometry x="700" y="410" width="70" height="30" as="geometry"/>
        </mxCell>
        <mxCell id="aDIp891v4BjhqhOBZq3--138" style="edgeStyle=orthogonalEdgeStyle;rounded=1;jumpStyle=arc;orthogonalLoop=1;jettySize=auto;html=1;entryX=0;entryY=0.5;entryDx=0;entryDy=0;exitX=0.5;exitY=1;exitDx=0;exitDy=0;" edge="1" parent="1" source="aDIp891v4BjhqhOBZq3--25" target="aDIp891v4BjhqhOBZq3--37">
          <mxGeometry relative="1" as="geometry"/>
        </mxCell>
        <mxCell id="aDIp891v4BjhqhOBZq3--25" value="结算审核" style="rounded=1;whiteSpace=wrap;html=1;" vertex="1" parent="1">
          <mxGeometry x="495" y="410" width="80" height="30" as="geometry"/>
        </mxCell>
        <mxCell id="aDIp891v4BjhqhOBZq3--26" value="结算账期&lt;br&gt;1个月/3个月" style="rounded=1;whiteSpace=wrap;html=1;" vertex="1" parent="1">
          <mxGeometry x="95" y="293" width="70" height="30" as="geometry"/>
        </mxCell>
        <mxCell id="aDIp891v4BjhqhOBZq3--69" style="edgeStyle=orthogonalEdgeStyle;rounded=1;orthogonalLoop=1;jettySize=auto;html=1;entryX=0.5;entryY=0;entryDx=0;entryDy=0;" edge="1" parent="1" source="aDIp891v4BjhqhOBZq3--30" target="aDIp891v4BjhqhOBZq3--68">
          <mxGeometry relative="1" as="geometry"/>
        </mxCell>
        <mxCell id="aDIp891v4BjhqhOBZq3--30" value="撮合成功" style="rounded=1;whiteSpace=wrap;html=1;" vertex="1" parent="1">
          <mxGeometry x="390" y="200" width="70" height="30" as="geometry"/>
        </mxCell>
        <mxCell id="aDIp891v4BjhqhOBZq3--104" style="edgeStyle=orthogonalEdgeStyle;rounded=1;orthogonalLoop=1;jettySize=auto;html=1;" edge="1" parent="1" source="aDIp891v4BjhqhOBZq3--32" target="aDIp891v4BjhqhOBZq3--74">
          <mxGeometry relative="1" as="geometry"/>
        </mxCell>
        <mxCell id="aDIp891v4BjhqhOBZq3--111" style="edgeStyle=orthogonalEdgeStyle;rounded=1;jumpStyle=arc;orthogonalLoop=1;jettySize=auto;html=1;entryX=0;entryY=0.5;entryDx=0;entryDy=0;" edge="1" parent="1" source="aDIp891v4BjhqhOBZq3--32" target="aDIp891v4BjhqhOBZq3--72">
          <mxGeometry relative="1" as="geometry"/>
        </mxCell>
        <mxCell id="aDIp891v4BjhqhOBZq3--32" value="注册认证" style="rounded=1;whiteSpace=wrap;html=1;" vertex="1" parent="1">
          <mxGeometry x="390" y="320" width="70" height="30" as="geometry"/>
        </mxCell>
        <mxCell id="aDIp891v4BjhqhOBZq3--70" style="edgeStyle=orthogonalEdgeStyle;rounded=1;orthogonalLoop=1;jettySize=auto;html=1;entryX=0;entryY=0.5;entryDx=0;entryDy=0;" edge="1" parent="1" source="aDIp891v4BjhqhOBZq3--35" target="aDIp891v4BjhqhOBZq3--44">
          <mxGeometry relative="1" as="geometry"/>
        </mxCell>
        <mxCell id="aDIp891v4BjhqhOBZq3--153" style="edgeStyle=orthogonalEdgeStyle;rounded=1;jumpStyle=arc;orthogonalLoop=1;jettySize=auto;html=1;entryX=0;entryY=0.5;entryDx=0;entryDy=0;startArrow=none;startFill=0;" edge="1" parent="1" source="aDIp891v4BjhqhOBZq3--35" target="aDIp891v4BjhqhOBZq3--47">
          <mxGeometry relative="1" as="geometry">
            <Array as="points">
              <mxPoint x="425" y="680"/>
              <mxPoint x="370" y="680"/>
              <mxPoint x="370" y="766"/>
            </Array>
          </mxGeometry>
        </mxCell>
        <mxCell id="aDIp891v4BjhqhOBZq3--35" value="客户签收&lt;br&gt;回单上传" style="rounded=1;whiteSpace=wrap;html=1;" vertex="1" parent="1">
          <mxGeometry x="390" y="631" width="70" height="30" as="geometry"/>
        </mxCell>
        <mxCell id="aDIp891v4BjhqhOBZq3--36" value="收款" style="rounded=1;whiteSpace=wrap;html=1;fillColor=#fad9d5;strokeColor=#ae4132;" vertex="1" parent="1">
          <mxGeometry x="710" y="539" width="70" height="30" as="geometry"/>
        </mxCell>
        <mxCell id="aDIp891v4BjhqhOBZq3--149" style="edgeStyle=orthogonalEdgeStyle;rounded=1;jumpStyle=arc;orthogonalLoop=1;jettySize=auto;html=1;" edge="1" parent="1" source="aDIp891v4BjhqhOBZq3--37" target="aDIp891v4BjhqhOBZq3--148">
          <mxGeometry relative="1" as="geometry"/>
        </mxCell>
        <mxCell id="aDIp891v4BjhqhOBZq3--37" value="财务审核" style="rounded=1;whiteSpace=wrap;html=1;" vertex="1" parent="1">
          <mxGeometry x="580" y="470" width="80" height="30" as="geometry"/>
        </mxCell>
        <mxCell id="aDIp891v4BjhqhOBZq3--61" value="API" style="edgeStyle=orthogonalEdgeStyle;rounded=1;orthogonalLoop=1;jettySize=auto;html=1;entryX=0;entryY=0.5;entryDx=0;entryDy=0;exitX=1;exitY=0.5;exitDx=0;exitDy=0;" edge="1" parent="1" source="aDIp891v4BjhqhOBZq3--38" target="aDIp891v4BjhqhOBZq3--62">
          <mxGeometry relative="1" as="geometry">
            <mxPoint x="700" y="155" as="targetPoint"/>
            <Array as="points">
              <mxPoint x="350" y="340"/>
              <mxPoint x="350" y="153"/>
            </Array>
          </mxGeometry>
        </mxCell>
        <mxCell id="aDIp891v4BjhqhOBZq3--121" style="edgeStyle=orthogonalEdgeStyle;rounded=1;jumpStyle=arc;orthogonalLoop=1;jettySize=auto;html=1;entryX=0.5;entryY=0;entryDx=0;entryDy=0;" edge="1" parent="1" source="aDIp891v4BjhqhOBZq3--38" target="aDIp891v4BjhqhOBZq3--120">
          <mxGeometry relative="1" as="geometry"/>
        </mxCell>
        <mxCell id="aDIp891v4BjhqhOBZq3--38" value="整车/零担" style="rounded=1;whiteSpace=wrap;html=1;" vertex="1" parent="1">
          <mxGeometry x="240" y="323" width="70" height="35" as="geometry"/>
        </mxCell>
        <mxCell id="aDIp891v4BjhqhOBZq3--115" style="edgeStyle=orthogonalEdgeStyle;rounded=1;jumpStyle=arc;orthogonalLoop=1;jettySize=auto;html=1;entryX=0.5;entryY=0;entryDx=0;entryDy=0;" edge="1" parent="1" source="aDIp891v4BjhqhOBZq3--44" target="aDIp891v4BjhqhOBZq3--88">
          <mxGeometry relative="1" as="geometry"/>
        </mxCell>
        <mxCell id="aDIp891v4BjhqhOBZq3--44" value="回单审核" style="rounded=1;whiteSpace=wrap;html=1;" vertex="1" parent="1">
          <mxGeometry x="500" y="631" width="80" height="30" as="geometry"/>
        </mxCell>
        <mxCell id="aDIp891v4BjhqhOBZq3--45" value="司机钱包" style="rounded=1;whiteSpace=wrap;html=1;fillColor=#fad9d5;strokeColor=#ae4132;" vertex="1" parent="1">
          <mxGeometry x="390" y="691" width="70" height="30" as="geometry"/>
        </mxCell>
        <mxCell id="aDIp891v4BjhqhOBZq3--92" style="edgeStyle=orthogonalEdgeStyle;rounded=1;orthogonalLoop=1;jettySize=auto;html=1;entryX=0;entryY=0.5;entryDx=0;entryDy=0;" edge="1" parent="1" source="aDIp891v4BjhqhOBZq3--47" target="aDIp891v4BjhqhOBZq3--53">
          <mxGeometry relative="1" as="geometry"/>
        </mxCell>
        <mxCell id="aDIp891v4BjhqhOBZq3--47" value="回单邮寄" style="rounded=1;whiteSpace=wrap;html=1;" vertex="1" parent="1">
          <mxGeometry x="390" y="751" width="70" height="30" as="geometry"/>
        </mxCell>
        <mxCell id="aDIp891v4BjhqhOBZq3--52" value="专人代开" style="edgeStyle=orthogonalEdgeStyle;rounded=1;comic=0;jumpStyle=gap;jumpSize=6;orthogonalLoop=1;jettySize=auto;html=1;shadow=0;startArrow=none;startFill=0;strokeColor=#000000;" edge="1" parent="1" source="aDIp891v4BjhqhOBZq3--53" target="aDIp891v4BjhqhOBZq3--54">
          <mxGeometry relative="1" as="geometry"/>
        </mxCell>
        <mxCell id="aDIp891v4BjhqhOBZq3--94" style="edgeStyle=orthogonalEdgeStyle;rounded=1;orthogonalLoop=1;jettySize=auto;html=1;entryX=1;entryY=0.5;entryDx=0;entryDy=0;" edge="1" parent="1" source="aDIp891v4BjhqhOBZq3--53" target="aDIp891v4BjhqhOBZq3--93">
          <mxGeometry relative="1" as="geometry">
            <Array as="points">
              <mxPoint x="690" y="766"/>
              <mxPoint x="690" y="906"/>
            </Array>
          </mxGeometry>
        </mxCell>
        <mxCell id="aDIp891v4BjhqhOBZq3--53" value="回单确认" style="rounded=1;whiteSpace=wrap;html=1;" vertex="1" parent="1">
          <mxGeometry x="590" y="751" width="80" height="30" as="geometry"/>
        </mxCell>
        <mxCell id="aDIp891v4BjhqhOBZq3--54" value="代开司机3%税率发票" style="rounded=1;whiteSpace=wrap;html=1;fillColor=#b0e3e6;strokeColor=#0e8088;" vertex="1" parent="1">
          <mxGeometry x="590" y="831" width="80" height="30" as="geometry"/>
        </mxCell>
        <mxCell id="aDIp891v4BjhqhOBZq3--60" style="edgeStyle=orthogonalEdgeStyle;rounded=0;orthogonalLoop=1;jettySize=auto;html=1;entryX=0.5;entryY=0;entryDx=0;entryDy=0;" edge="1" parent="1" source="aDIp891v4BjhqhOBZq3--58" target="aDIp891v4BjhqhOBZq3--38">
          <mxGeometry relative="1" as="geometry"/>
        </mxCell>
        <mxCell id="aDIp891v4BjhqhOBZq3--58" value="发布货源" style="rounded=1;whiteSpace=wrap;html=1;" vertex="1" parent="1">
          <mxGeometry x="240" y="248" width="70" height="30" as="geometry"/>
        </mxCell>
        <mxCell id="aDIp891v4BjhqhOBZq3--65" style="edgeStyle=orthogonalEdgeStyle;rounded=1;orthogonalLoop=1;jettySize=auto;html=1;entryX=0.5;entryY=0;entryDx=0;entryDy=0;" edge="1" parent="1" source="aDIp891v4BjhqhOBZq3--62" target="aDIp891v4BjhqhOBZq3--30">
          <mxGeometry relative="1" as="geometry"/>
        </mxCell>
        <mxCell id="aDIp891v4BjhqhOBZq3--62" value="&lt;font face=&quot;courier new&quot;&gt;&lt;span style=&quot;font-size: 11px ; background-color: rgb(255 , 255 , 255)&quot;&gt;货源信息&lt;/span&gt;&lt;/font&gt;" style="rounded=1;whiteSpace=wrap;html=1;" vertex="1" parent="1">
          <mxGeometry x="390" y="135" width="70" height="35" as="geometry"/>
        </mxCell>
        <mxCell id="aDIp891v4BjhqhOBZq3--63" value="整车" style="text;html=1;strokeColor=none;fillColor=none;align=center;verticalAlign=middle;whiteSpace=wrap;rounded=0;" vertex="1" parent="1">
          <mxGeometry x="310" y="320" width="40" height="20" as="geometry"/>
        </mxCell>
        <mxCell id="aDIp891v4BjhqhOBZq3--71" style="edgeStyle=orthogonalEdgeStyle;rounded=1;orthogonalLoop=1;jettySize=auto;html=1;entryX=0.5;entryY=0;entryDx=0;entryDy=0;" edge="1" parent="1" source="aDIp891v4BjhqhOBZq3--68" target="aDIp891v4BjhqhOBZq3--32">
          <mxGeometry relative="1" as="geometry"/>
        </mxCell>
        <mxCell id="aDIp891v4BjhqhOBZq3--68" value="安装APP&lt;br&gt;微信" style="rounded=1;whiteSpace=wrap;html=1;" vertex="1" parent="1">
          <mxGeometry x="390" y="260" width="70" height="30" as="geometry"/>
        </mxCell>
        <mxCell id="aDIp891v4BjhqhOBZq3--72" value="资质认证" style="rounded=1;whiteSpace=wrap;html=1;" vertex="1" parent="1">
          <mxGeometry x="505" y="320" width="70" height="30" as="geometry"/>
        </mxCell>
        <mxCell id="aDIp891v4BjhqhOBZq3--77" value="" style="edgeStyle=orthogonalEdgeStyle;rounded=1;orthogonalLoop=1;jettySize=auto;html=1;" edge="1" parent="1" source="aDIp891v4BjhqhOBZq3--74" target="aDIp891v4BjhqhOBZq3--76">
          <mxGeometry relative="1" as="geometry"/>
        </mxCell>
        <mxCell id="aDIp891v4BjhqhOBZq3--81" style="edgeStyle=orthogonalEdgeStyle;rounded=1;orthogonalLoop=1;jettySize=auto;html=1;entryX=0;entryY=0.5;entryDx=0;entryDy=0;" edge="1" parent="1" source="aDIp891v4BjhqhOBZq3--74" target="aDIp891v4BjhqhOBZq3--80">
          <mxGeometry relative="1" as="geometry"/>
        </mxCell>
        <mxCell id="aDIp891v4BjhqhOBZq3--74" value="接单" style="rounded=1;whiteSpace=wrap;html=1;" vertex="1" parent="1">
          <mxGeometry x="390" y="380" width="70" height="30" as="geometry"/>
        </mxCell>
        <mxCell id="aDIp891v4BjhqhOBZq3--79" style="edgeStyle=orthogonalEdgeStyle;rounded=1;orthogonalLoop=1;jettySize=auto;html=1;entryX=1;entryY=0.5;entryDx=0;entryDy=0;" edge="1" parent="1" source="aDIp891v4BjhqhOBZq3--76" target="aDIp891v4BjhqhOBZq3--78">
          <mxGeometry relative="1" as="geometry"/>
        </mxCell>
        <mxCell id="aDIp891v4BjhqhOBZq3--83" style="edgeStyle=orthogonalEdgeStyle;rounded=1;orthogonalLoop=1;jettySize=auto;html=1;" edge="1" parent="1" source="aDIp891v4BjhqhOBZq3--76" target="aDIp891v4BjhqhOBZq3--82">
          <mxGeometry relative="1" as="geometry"/>
        </mxCell>
        <mxCell id="aDIp891v4BjhqhOBZq3--76" value="预约提货" style="rounded=1;whiteSpace=wrap;html=1;" vertex="1" parent="1">
          <mxGeometry x="390" y="450" width="70" height="30" as="geometry"/>
        </mxCell>
        <mxCell id="aDIp891v4BjhqhOBZq3--78" value="预约确认" style="rounded=1;whiteSpace=wrap;html=1;" vertex="1" parent="1">
          <mxGeometry x="240" y="450" width="70" height="30" as="geometry"/>
        </mxCell>
        <mxCell id="aDIp891v4BjhqhOBZq3--80" value="押回单冻结" style="rounded=1;whiteSpace=wrap;html=1;" vertex="1" parent="1">
          <mxGeometry x="585" y="380" width="70" height="30" as="geometry"/>
        </mxCell>
        <mxCell id="aDIp891v4BjhqhOBZq3--85" style="edgeStyle=orthogonalEdgeStyle;rounded=1;orthogonalLoop=1;jettySize=auto;html=1;" edge="1" parent="1" source="aDIp891v4BjhqhOBZq3--82" target="aDIp891v4BjhqhOBZq3--84">
          <mxGeometry relative="1" as="geometry"/>
        </mxCell>
        <mxCell id="aDIp891v4BjhqhOBZq3--82" value="提货装车" style="rounded=1;whiteSpace=wrap;html=1;" vertex="1" parent="1">
          <mxGeometry x="390" y="510" width="70" height="30" as="geometry"/>
        </mxCell>
        <mxCell id="aDIp891v4BjhqhOBZq3--87" style="edgeStyle=orthogonalEdgeStyle;rounded=1;orthogonalLoop=1;jettySize=auto;html=1;entryX=0.5;entryY=0;entryDx=0;entryDy=0;" edge="1" parent="1" source="aDIp891v4BjhqhOBZq3--84" target="aDIp891v4BjhqhOBZq3--35">
          <mxGeometry relative="1" as="geometry"/>
        </mxCell>
        <mxCell id="aDIp891v4BjhqhOBZq3--84" value="在途轨迹" style="rounded=1;whiteSpace=wrap;html=1;" vertex="1" parent="1">
          <mxGeometry x="390" y="569" width="70" height="30" as="geometry"/>
        </mxCell>
        <mxCell id="aDIp891v4BjhqhOBZq3--86" value="资金账户" style="rounded=1;whiteSpace=wrap;html=1;" vertex="1" parent="1">
          <mxGeometry x="590" y="150" width="70" height="30" as="geometry"/>
        </mxCell>
        <mxCell id="aDIp891v4BjhqhOBZq3--90" style="edgeStyle=orthogonalEdgeStyle;rounded=1;orthogonalLoop=1;jettySize=auto;html=1;" edge="1" parent="1" source="aDIp891v4BjhqhOBZq3--88" target="aDIp891v4BjhqhOBZq3--45">
          <mxGeometry relative="1" as="geometry"/>
        </mxCell>
        <mxCell id="aDIp891v4BjhqhOBZq3--88" value="在线支付" style="rounded=1;whiteSpace=wrap;html=1;" vertex="1" parent="1">
          <mxGeometry x="585" y="691" width="80" height="30" as="geometry"/>
        </mxCell>
        <mxCell id="aDIp891v4BjhqhOBZq3--93" value="押回单解冻" style="rounded=1;whiteSpace=wrap;html=1;" vertex="1" parent="1">
          <mxGeometry x="595" y="891" width="70" height="30" as="geometry"/>
        </mxCell>
        <mxCell id="aDIp891v4BjhqhOBZq3--97" value="添加线路&lt;br&gt;收发货信息&lt;br&gt;车辆要求等" style="text;html=1;" vertex="1" parent="1">
          <mxGeometry x="200" y="275" width="60" height="30" as="geometry"/>
        </mxCell>
        <mxCell id="aDIp891v4BjhqhOBZq3--98" value="回单上传&lt;br&gt;承运凭证" style="rounded=1;whiteSpace=wrap;html=1;" vertex="1" parent="1">
          <mxGeometry x="700" y="328" width="70" height="30" as="geometry"/>
        </mxCell>
        <mxCell id="aDIp891v4BjhqhOBZq3--99" value="无轨迹,不用上传运单" style="edgeStyle=orthogonalEdgeStyle;rounded=1;orthogonalLoop=1;jettySize=auto;html=1;entryX=0.5;entryY=0;entryDx=0;entryDy=0;" edge="1" parent="1" source="aDIp891v4BjhqhOBZq3--100" target="aDIp891v4BjhqhOBZq3--98">
          <mxGeometry relative="1" as="geometry"/>
        </mxCell>
        <mxCell id="aDIp891v4BjhqhOBZq3--100" value="接单" style="rounded=1;whiteSpace=wrap;html=1;" vertex="1" parent="1">
          <mxGeometry x="700" y="248" width="70" height="30" as="geometry"/>
        </mxCell>
        <mxCell id="aDIp891v4BjhqhOBZq3--108" value="零担" style="text;html=1;strokeColor=none;fillColor=none;align=center;verticalAlign=middle;whiteSpace=wrap;rounded=0;" vertex="1" parent="1">
          <mxGeometry x="270" y="360" width="40" height="20" as="geometry"/>
        </mxCell>
        <mxCell id="aDIp891v4BjhqhOBZq3--112" value="财务人员" style="rounded=0;whiteSpace=wrap;html=1;fillColor=#4D4D4D;fontColor=#FFFFFF;" vertex="1" parent="1">
          <mxGeometry x="580" y="90" width="80" height="30" as="geometry"/>
        </mxCell>
        <mxCell id="aDIp891v4BjhqhOBZq3--154" style="edgeStyle=orthogonalEdgeStyle;rounded=1;jumpStyle=arc;orthogonalLoop=1;jettySize=auto;html=1;entryX=0;entryY=0.5;entryDx=0;entryDy=0;startArrow=none;startFill=0;exitX=0.5;exitY=1;exitDx=0;exitDy=0;" edge="1" parent="1" source="aDIp891v4BjhqhOBZq3--120" target="aDIp891v4BjhqhOBZq3--100">
          <mxGeometry relative="1" as="geometry">
            <Array as="points">
              <mxPoint x="275" y="430"/>
              <mxPoint x="480" y="430"/>
              <mxPoint x="480" y="263"/>
            </Array>
          </mxGeometry>
        </mxCell>
        <mxCell id="aDIp891v4BjhqhOBZq3--120" value="竞价/指派" style="rounded=1;whiteSpace=wrap;html=1;" vertex="1" parent="1">
          <mxGeometry x="240" y="390" width="70" height="30" as="geometry"/>
        </mxCell>
        <mxCell id="aDIp891v4BjhqhOBZq3--133" style="edgeStyle=orthogonalEdgeStyle;rounded=1;jumpStyle=arc;orthogonalLoop=1;jettySize=auto;html=1;entryX=0;entryY=0.5;entryDx=0;entryDy=0;" edge="1" parent="1" source="aDIp891v4BjhqhOBZq3--130" target="aDIp891v4BjhqhOBZq3--84">
          <mxGeometry relative="1" as="geometry"/>
        </mxCell>
        <mxCell id="aDIp891v4BjhqhOBZq3--130" value="轨迹监控" style="rounded=1;whiteSpace=wrap;html=1;" vertex="1" parent="1">
          <mxGeometry x="240" y="569" width="70" height="30" as="geometry"/>
        </mxCell>
        <mxCell id="aDIp891v4BjhqhOBZq3--146" style="edgeStyle=orthogonalEdgeStyle;rounded=1;jumpStyle=arc;orthogonalLoop=1;jettySize=auto;html=1;entryX=1;entryY=0.5;entryDx=0;entryDy=0;" edge="1" parent="1" source="aDIp891v4BjhqhOBZq3--140" target="aDIp891v4BjhqhOBZq3--37">
          <mxGeometry relative="1" as="geometry"/>
        </mxCell>
        <mxCell id="aDIp891v4BjhqhOBZq3--140" value="开具9%税率发票" style="rounded=1;whiteSpace=wrap;html=1;" vertex="1" parent="1">
          <mxGeometry x="700" y="470" width="70" height="30" as="geometry"/>
        </mxCell>
        <mxCell id="aDIp891v4BjhqhOBZq3--150" style="edgeStyle=orthogonalEdgeStyle;rounded=1;jumpStyle=arc;orthogonalLoop=1;jettySize=auto;html=1;" edge="1" parent="1" source="aDIp891v4BjhqhOBZq3--148" target="aDIp891v4BjhqhOBZq3--36">
          <mxGeometry relative="1" as="geometry"/>
        </mxCell>
        <mxCell id="aDIp891v4BjhqhOBZq3--148" value="在线支付&lt;br&gt;线下支付" style="rounded=1;whiteSpace=wrap;html=1;" vertex="1" parent="1">
          <mxGeometry x="581" y="539" width="80" height="30" as="geometry"/>
        </mxCell>
        <mxCell id="aDIp891v4BjhqhOBZq3--152" value="互评" style="edgeStyle=orthogonalEdgeStyle;rounded=1;jumpStyle=arc;orthogonalLoop=1;jettySize=auto;html=1;entryX=0;entryY=0.5;entryDx=0;entryDy=0;startArrow=classic;startFill=1;" edge="1" parent="1" source="aDIp891v4BjhqhOBZq3--151" target="aDIp891v4BjhqhOBZq3--35">
          <mxGeometry relative="1" as="geometry"/>
        </mxCell>
        <mxCell id="aDIp891v4BjhqhOBZq3--151" value="信用评价" style="rounded=1;whiteSpace=wrap;html=1;" vertex="1" parent="1">
          <mxGeometry x="240" y="631" width="70" height="30" as="geometry"/>
        </mxCell>
        <mxCell id="aDIp891v4BjhqhOBZq3--159" value="转化为自有运力" style="whiteSpace=wrap;html=1;shape=mxgraph.basic.cloud_callout;fillColor=#d5e8d4;strokeColor=#82b366;" vertex="1" parent="1">
          <mxGeometry x="460" y="210" width="120" height="60" as="geometry"/>
        </mxCell>
      </root>
    </mxGraphModel>
  </diagram>
</mxfile>
